<?xml version="1.0" encoding="utf-8"?>
<!-- Generator: Adobe Illustrator 23.0.5, SVG Export Plug-In . SVG Version: 6.00 Build 0)  -->
<svg version="1.1" id="Layer_1" xmlns="http://www.w3.org/2000/svg" xmlns:xlink="http://www.w3.org/1999/xlink" x="0px" y="0px"
	 viewBox="0 0 1600 857" style="enable-background:new 0 0 1600 857;" xml:space="preserve">
<style type="text/css">
	.st0{fill:#D7E1FB;}
	.st1{fill:#3351A1;}
	.st2{fill:#233F93;}
	.st3{fill:#2D5EAA;}
	.st4{fill:#1B75B9;}
	.st5{fill:#FFFFFF;}
</style>
<rect y="-0.5" class="st0" width="1600" height="857"/>
<g>
	<g>
		<path d="M599.29,657.53l18.68,28.27v-28.53c0-1.85,0.4-3.24,1.19-4.17c0.8-0.93,1.87-1.39,3.22-1.39c1.39,0,2.5,0.46,3.3,1.39
			c0.81,0.93,1.21,2.32,1.21,4.17v37.72c0,4.21-1.75,6.31-5.23,6.31c-0.87,0-1.66-0.13-2.36-0.38c-0.7-0.25-1.35-0.65-1.96-1.19
			c-0.61-0.54-1.18-1.18-1.7-1.91s-1.05-1.48-1.57-2.24l-18.22-27.94v28.1c0,1.83-0.42,3.22-1.28,4.16
			c-0.85,0.94-1.94,1.41-3.27,1.41c-1.37,0-2.48-0.47-3.3-1.42c-0.83-0.95-1.24-2.33-1.24-4.14v-37c0-1.57,0.17-2.8,0.52-3.7
			c0.41-0.98,1.1-1.78,2.06-2.4c0.96-0.62,2-0.93,3.11-0.93c0.87,0,1.62,0.14,2.24,0.43c0.62,0.28,1.17,0.67,1.64,1.14
			c0.47,0.48,0.95,1.1,1.44,1.87C598.26,655.91,598.77,656.7,599.29,657.53z"/>
		<path d="M661.84,685.34h-17.47c0.02,2.03,0.43,3.82,1.23,5.37c0.8,1.55,1.85,2.72,3.17,3.5s2.78,1.18,4.37,1.18
			c1.07,0,2.04-0.13,2.93-0.38c0.88-0.25,1.74-0.64,2.57-1.18c0.83-0.53,1.59-1.11,2.29-1.72s1.6-1.44,2.72-2.49
			c0.46-0.39,1.11-0.59,1.96-0.59c0.92,0,1.66,0.25,2.22,0.75c0.57,0.5,0.85,1.21,0.85,2.13c0,0.81-0.32,1.75-0.95,2.83
			c-0.63,1.08-1.59,2.12-2.86,3.11c-1.28,0.99-2.88,1.82-4.81,2.47c-1.93,0.65-4.15,0.98-6.66,0.98c-5.74,0-10.2-1.64-13.38-4.91
			c-3.18-3.27-4.78-7.71-4.78-13.31c0-2.64,0.39-5.09,1.18-7.34c0.79-2.26,1.93-4.19,3.43-5.81c1.51-1.61,3.36-2.85,5.56-3.71
			c2.2-0.86,4.64-1.29,7.33-1.29c3.49,0,6.48,0.74,8.98,2.21c2.5,1.47,4.37,3.38,5.61,5.71c1.24,2.33,1.87,4.71,1.87,7.13
			c0,2.25-0.64,3.7-1.93,4.37C665.99,685,664.18,685.34,661.84,685.34z M644.38,680.27h16.19c-0.22-3.05-1.04-5.34-2.47-6.85
			c-1.43-1.52-3.31-2.27-5.64-2.27c-2.22,0-4.05,0.77-5.48,2.31C645.55,674.98,644.68,677.26,644.38,680.27z"/>
		<path d="M681.41,670.55l5.82,19.96l5.3-18.55c0.57-1.94,0.99-3.27,1.26-3.97s0.79-1.38,1.54-2.03c0.75-0.64,1.78-0.97,3.09-0.97
			c1.33,0,2.37,0.32,3.13,0.97c0.75,0.64,1.28,1.34,1.59,2.09c0.31,0.75,0.73,2.06,1.28,3.91l5.3,18.55l5.89-19.96
			c0.39-1.44,0.71-2.48,0.95-3.12c0.24-0.64,0.64-1.21,1.21-1.7c0.57-0.49,1.38-0.74,2.45-0.74c1.07,0,2,0.37,2.78,1.11
			c0.79,0.74,1.18,1.61,1.18,2.62c0,0.92-0.34,2.3-1.01,4.16l-7.29,21.4c-0.63,1.81-1.12,3.12-1.47,3.93s-0.9,1.53-1.65,2.16
			c-0.75,0.63-1.78,0.95-3.09,0.95c-1.35,0-2.42-0.34-3.19-1.01c-0.77-0.68-1.35-1.5-1.72-2.49c-0.37-0.98-0.77-2.26-1.21-3.83
			l-5.1-17.4l-4.94,17.4c-0.65,2.42-1.36,4.25-2.13,5.48c-0.76,1.23-2.1,1.85-4.02,1.85c-0.98,0-1.82-0.19-2.5-0.57
			c-0.69-0.38-1.26-0.93-1.72-1.64c-0.46-0.71-0.86-1.55-1.21-2.52c-0.35-0.97-0.62-1.74-0.82-2.31l-7.23-21.4
			c-0.72-2.01-1.08-3.39-1.08-4.16c0-0.96,0.38-1.82,1.15-2.58c0.76-0.76,1.7-1.15,2.81-1.15c1.48,0,2.49,0.42,3.01,1.26
			C680.26,667.09,680.82,668.52,681.41,670.55z"/>
		<path d="M741.64,695.38v-15.21l-11.71-18.16c-1.03-1.64-1.75-2.91-2.18-3.83c-0.43-0.92-0.64-1.71-0.64-2.39
			c0-1.11,0.43-2.07,1.29-2.88c0.86-0.81,1.92-1.21,3.19-1.21c1.33,0,2.34,0.38,3.03,1.13c0.69,0.75,1.72,2.25,3.09,4.5l8.96,14.56
			l9.06-14.56c0.54-0.89,1-1.65,1.37-2.26c0.37-0.61,0.78-1.18,1.23-1.72c0.45-0.53,0.94-0.94,1.49-1.23s1.21-0.43,2-0.43
			c1.22,0,2.24,0.4,3.06,1.19c0.82,0.8,1.23,1.72,1.23,2.76c0,0.85-0.21,1.7-0.62,2.55c-0.42,0.85-1.12,2.03-2.13,3.53l-12.01,18.42
			v15.21c0,1.98-0.46,3.47-1.37,4.45s-2.08,1.47-3.5,1.47c-1.44,0-2.61-0.49-3.5-1.46C742.08,698.88,741.64,697.39,741.64,695.38z"
			/>
		<path d="M801.41,683.15c0,2.66-0.41,5.11-1.24,7.36c-0.83,2.25-2.03,4.18-3.6,5.79s-3.45,2.85-5.63,3.71s-4.63,1.29-7.36,1.29
			c-2.71,0-5.14-0.44-7.3-1.31c-2.16-0.87-4.03-2.12-5.61-3.75s-2.78-3.54-3.6-5.76c-0.82-2.21-1.23-4.66-1.23-7.34
			c0-2.7,0.41-5.18,1.24-7.43c0.83-2.25,2.02-4.17,3.57-5.76c1.55-1.59,3.42-2.82,5.63-3.68s4.63-1.29,7.3-1.29
			c2.7,0,5.16,0.44,7.36,1.31c2.2,0.87,4.09,2.12,5.66,3.73c1.57,1.61,2.76,3.53,3.58,5.76C801,678.01,801.41,680.46,801.41,683.15z
			 M792.44,683.15c0-3.64-0.8-6.48-2.41-8.51c-1.6-2.03-3.76-3.04-6.46-3.04c-1.75,0-3.28,0.45-4.61,1.36
			c-1.33,0.91-2.36,2.24-3.08,4.01c-0.72,1.77-1.08,3.83-1.08,6.18c0,2.33,0.35,4.37,1.06,6.12c0.71,1.75,1.72,3.08,3.04,4.01
			c1.32,0.93,2.87,1.39,4.66,1.39c2.7,0,4.86-1.02,6.46-3.06C791.64,689.56,792.44,686.74,792.44,683.15z"/>
		<path d="M817.31,688.41v7.46c0,1.81-0.43,3.17-1.28,4.07c-0.85,0.9-1.93,1.36-3.24,1.36c-1.29,0-2.34-0.46-3.17-1.37
			c-0.83-0.92-1.24-2.27-1.24-4.06v-24.86c0-4.01,1.45-6.02,4.35-6.02c1.48,0,2.55,0.47,3.21,1.41s1.01,2.32,1.08,4.15
			c1.07-1.83,2.17-3.22,3.29-4.15s2.62-1.41,4.5-1.41c1.88,0,3.7,0.47,5.46,1.41s2.65,2.18,2.65,3.73c0,1.09-0.38,1.99-1.13,2.7
			c-0.75,0.71-1.57,1.06-2.44,1.06c-0.33,0-1.12-0.2-2.37-0.6s-2.36-0.61-3.32-0.61c-1.31,0-2.38,0.34-3.21,1.03
			c-0.83,0.69-1.47,1.71-1.93,3.06c-0.46,1.35-0.78,2.96-0.95,4.83C817.39,683.46,817.31,685.73,817.31,688.41z"/>
		<path d="M858.37,697.21l-7.88-12.96l-4.84,4.58v7.1c0,1.72-0.45,3.05-1.36,3.98c-0.91,0.93-1.95,1.39-3.13,1.39
			c-1.37,0-2.45-0.46-3.24-1.37s-1.18-2.27-1.18-4.06v-38.08c0-1.98,0.38-3.49,1.14-4.53s1.85-1.55,3.27-1.55
			c1.38,0,2.46,0.47,3.27,1.41s1.21,2.32,1.21,4.15v21.66l10.04-10.53c1.24-1.31,2.19-2.2,2.85-2.68c0.65-0.48,1.45-0.72,2.39-0.72
			c1.11,0,2.04,0.36,2.78,1.06c0.74,0.71,1.11,1.6,1.11,2.67c0,1.31-1.21,3.05-3.63,5.23l-4.74,4.35l9.16,14.39
			c0.68,1.07,1.16,1.88,1.46,2.44c0.29,0.56,0.44,1.08,0.44,1.59c0,1.42-0.39,2.54-1.16,3.35c-0.77,0.82-1.79,1.23-3.06,1.23
			c-1.09,0-1.93-0.29-2.52-0.88S859.37,698.76,858.37,697.21z"/>
		<path d="M916.01,685.34c0,1.53-0.38,3.18-1.13,4.96c-0.75,1.78-1.94,3.52-3.55,5.23c-1.61,1.71-3.68,3.1-6.18,4.17
			c-2.51,1.07-5.43,1.6-8.77,1.6c-2.53,0-4.83-0.24-6.9-0.72c-2.07-0.48-3.95-1.23-5.64-2.24c-1.69-1.01-3.24-2.35-4.66-4.01
			c-1.26-1.5-2.34-3.19-3.24-5.05c-0.89-1.86-1.57-3.85-2.01-5.97c-0.45-2.12-0.67-4.36-0.67-6.74c0-3.86,0.56-7.32,1.68-10.37
			s2.73-5.67,4.83-7.83s4.55-3.82,7.36-4.96c2.81-1.13,5.81-1.7,9-1.7c3.88,0,7.34,0.77,10.37,2.32c3.03,1.55,5.35,3.46,6.97,5.74
			c1.61,2.28,2.42,4.43,2.42,6.46c0,1.11-0.39,2.09-1.18,2.94s-1.73,1.28-2.85,1.28c-1.24,0-2.18-0.29-2.8-0.88
			c-0.62-0.59-1.31-1.6-2.08-3.04c-1.27-2.38-2.75-4.16-4.47-5.33c-1.71-1.18-3.82-1.77-6.33-1.77c-3.99,0-7.17,1.52-9.54,4.55
			s-3.55,7.34-3.55,12.92c0,3.73,0.52,6.83,1.57,9.31c1.05,2.48,2.53,4.32,4.45,5.54c1.92,1.22,4.17,1.83,6.74,1.83
			c2.79,0,5.15-0.69,7.08-2.08c1.93-1.38,3.39-3.42,4.37-6.1c0.41-1.26,0.93-2.29,1.54-3.09c0.61-0.8,1.59-1.19,2.94-1.19
			c1.16,0,2.15,0.4,2.98,1.21C915.59,683.13,916.01,684.14,916.01,685.34z"/>
		<path d="M957.56,683.15c0,2.66-0.41,5.11-1.24,7.36c-0.83,2.25-2.03,4.18-3.6,5.79s-3.45,2.85-5.63,3.71s-4.63,1.29-7.36,1.29
			c-2.71,0-5.14-0.44-7.3-1.31c-2.16-0.87-4.03-2.12-5.61-3.75s-2.78-3.54-3.6-5.76c-0.82-2.21-1.23-4.66-1.23-7.34
			c0-2.7,0.41-5.18,1.24-7.43c0.83-2.25,2.02-4.17,3.57-5.76c1.55-1.59,3.42-2.82,5.63-3.68s4.63-1.29,7.3-1.29
			c2.7,0,5.16,0.44,7.36,1.31c2.2,0.87,4.09,2.12,5.66,3.73c1.57,1.61,2.76,3.53,3.58,5.76
			C957.15,678.01,957.56,680.46,957.56,683.15z M948.59,683.15c0-3.64-0.8-6.48-2.41-8.51c-1.6-2.03-3.76-3.04-6.46-3.04
			c-1.75,0-3.28,0.45-4.61,1.36c-1.33,0.91-2.36,2.24-3.08,4.01c-0.72,1.77-1.08,3.83-1.08,6.18c0,2.33,0.35,4.37,1.06,6.12
			c0.71,1.75,1.72,3.08,3.04,4.01c1.32,0.93,2.87,1.39,4.66,1.39c2.7,0,4.86-1.02,6.46-3.06
			C947.79,689.56,948.59,686.74,948.59,683.15z"/>
		<path d="M969.1,660.83c-1.24,0-2.31-0.38-3.19-1.15c-0.88-0.76-1.32-1.84-1.32-3.24c0-1.26,0.45-2.31,1.36-3.12
			c0.9-0.82,1.96-1.23,3.16-1.23c1.16,0,2.18,0.37,3.08,1.11c0.89,0.74,1.34,1.82,1.34,3.24c0,1.37-0.44,2.45-1.31,3.22
			C971.34,660.45,970.3,660.83,969.1,660.83z M973.52,670.06v25.81c0,1.79-0.42,3.14-1.28,4.06c-0.85,0.92-1.93,1.37-3.24,1.37
			s-2.37-0.47-3.19-1.41c-0.82-0.94-1.23-2.28-1.23-4.02v-25.55c0-1.77,0.41-3.1,1.23-3.99c0.82-0.89,1.88-1.34,3.19-1.34
			s2.39,0.45,3.24,1.34C973.1,667.22,973.52,668.47,973.52,670.06z"/>
		<path d="M990.86,669.93v1.08c1.57-2.07,3.29-3.59,5.15-4.56c1.86-0.97,4.01-1.46,6.43-1.46c2.36,0,4.46,0.51,6.31,1.54
			c1.85,1.03,3.24,2.48,4.15,4.35c0.59,1.09,0.97,2.27,1.15,3.53c0.17,1.27,0.26,2.88,0.26,4.84v16.62c0,1.79-0.41,3.14-1.23,4.06
			c-0.82,0.92-1.88,1.37-3.19,1.37c-1.33,0-2.41-0.47-3.24-1.41c-0.83-0.94-1.24-2.28-1.24-4.02v-14.88c0-2.94-0.41-5.2-1.23-6.76
			c-0.82-1.56-2.45-2.34-4.89-2.34c-1.59,0-3.04,0.47-4.35,1.42c-1.31,0.95-2.27,2.25-2.88,3.91c-0.44,1.33-0.65,3.82-0.65,7.46
			v11.19c0,1.81-0.42,3.17-1.26,4.07s-1.92,1.36-3.25,1.36c-1.29,0-2.34-0.47-3.17-1.41s-1.24-2.28-1.24-4.02v-25.81
			c0-1.7,0.37-2.97,1.11-3.81c0.74-0.84,1.76-1.26,3.04-1.26c0.79,0,1.49,0.19,2.13,0.56c0.63,0.37,1.14,0.93,1.52,1.67
			C990.67,667.96,990.86,668.86,990.86,669.93z"/>
	</g>
	<g>
		<path d="M183.91,155.51h-7.75v25.48c0,1.47-0.33,2.56-0.98,3.27c-0.65,0.71-1.5,1.06-2.54,1.06c-1.05,0-1.91-0.36-2.57-1.08
			c-0.66-0.72-0.99-1.8-0.99-3.25v-25.48h-7.75c-1.21,0-2.11-0.27-2.7-0.8c-0.59-0.53-0.89-1.24-0.89-2.12
			c0-0.91,0.31-1.63,0.92-2.15s1.5-0.79,2.67-0.79h22.59c1.23,0,2.14,0.27,2.74,0.81c0.6,0.54,0.9,1.25,0.9,2.13
			c0,0.88-0.3,1.58-0.91,2.12C186.03,155.24,185.12,155.51,183.91,155.51z"/>
		<path d="M197.05,153.02v9.69c0.83-0.96,1.64-1.71,2.43-2.27c0.79-0.56,1.66-0.98,2.62-1.26c0.96-0.28,1.99-0.42,3.09-0.42
			c1.66,0,3.13,0.35,4.41,1.05c1.28,0.7,2.29,1.72,3.03,3.06c0.46,0.78,0.77,1.65,0.93,2.62c0.16,0.97,0.24,2.08,0.24,3.34v12.51
			c0,1.31-0.3,2.3-0.9,2.97c-0.6,0.67-1.39,1-2.38,1c-2.15,0-3.23-1.32-3.23-3.97v-11.03c0-2.09-0.31-3.7-0.93-4.82
			c-0.62-1.12-1.8-1.69-3.54-1.69c-1.16,0-2.21,0.33-3.15,0.99c-0.93,0.66-1.63,1.57-2.09,2.72c-0.35,0.97-0.53,2.7-0.53,5.19v8.64
			c0,1.29-0.29,2.28-0.87,2.95c-0.58,0.68-1.39,1.02-2.43,1.02c-2.15,0-3.23-1.32-3.23-3.97v-28.33c0-1.32,0.28-2.32,0.85-2.98
			c0.57-0.66,1.36-0.99,2.38-0.99c1.04,0,1.85,0.33,2.43,1C196.75,150.72,197.05,151.71,197.05,153.02z"/>
		<path d="M238.49,173.64h-12.78c0.02,1.48,0.32,2.79,0.9,3.92c0.58,1.13,1.36,1.99,2.32,2.56c0.96,0.57,2.03,0.86,3.19,0.86
			c0.78,0,1.5-0.09,2.14-0.28c0.65-0.18,1.27-0.47,1.88-0.86c0.61-0.39,1.17-0.81,1.68-1.26c0.51-0.45,1.17-1.05,1.99-1.82
			c0.33-0.29,0.81-0.43,1.44-0.43c0.67,0,1.21,0.18,1.63,0.55c0.42,0.37,0.62,0.89,0.62,1.56c0,0.59-0.23,1.28-0.69,2.07
			c-0.46,0.79-1.16,1.55-2.09,2.27c-0.93,0.73-2.11,1.33-3.52,1.81c-1.41,0.48-3.03,0.72-4.87,0.72c-4.19,0-7.46-1.2-9.79-3.59
			s-3.49-5.64-3.49-9.74c0-1.93,0.29-3.72,0.86-5.37c0.57-1.65,1.41-3.07,2.51-4.25c1.1-1.18,2.46-2.09,4.07-2.72
			c1.61-0.63,3.4-0.94,5.36-0.94c2.55,0,4.74,0.54,6.57,1.61c1.83,1.08,3.19,2.47,4.1,4.18c0.91,1.71,1.36,3.45,1.36,5.22
			c0,1.64-0.47,2.71-1.41,3.19C241.52,173.4,240.19,173.64,238.49,173.64z M225.71,169.93h11.84c-0.16-2.23-0.76-3.9-1.81-5.01
			c-1.04-1.11-2.42-1.66-4.13-1.66c-1.63,0-2.96,0.56-4.01,1.69C226.57,166.07,225.93,167.73,225.71,169.93z"/>
		<path d="M277.51,149.05c3.64,0,6.76,0.74,9.37,2.21c2.61,1.48,4.58,3.57,5.92,6.29c1.34,2.72,2.01,5.91,2.01,9.58
			c0,2.71-0.37,5.18-1.1,7.39c-0.73,2.22-1.83,4.14-3.3,5.77s-3.27,2.87-5.41,3.73s-4.59,1.29-7.34,1.29c-2.74,0-5.2-0.44-7.37-1.33
			c-2.17-0.89-3.98-2.13-5.43-3.74c-1.45-1.61-2.55-3.55-3.29-5.81c-0.74-2.26-1.11-4.71-1.11-7.35c0-2.7,0.39-5.17,1.16-7.42
			s1.89-4.16,3.36-5.74c1.47-1.58,3.25-2.79,5.36-3.62C272.43,149.46,274.83,149.05,277.51,149.05z M287.6,167.09
			c0-2.57-0.42-4.79-1.24-6.68c-0.83-1.88-2.01-3.31-3.55-4.27c-1.54-0.97-3.31-1.45-5.3-1.45c-1.42,0-2.73,0.27-3.94,0.8
			c-1.2,0.53-2.24,1.31-3.11,2.33c-0.87,1.02-1.55,2.32-2.06,3.91c-0.5,1.59-0.75,3.37-0.75,5.35c0,1.99,0.25,3.8,0.75,5.41
			c0.5,1.61,1.21,2.95,2.13,4.01c0.92,1.06,1.97,1.85,3.16,2.38c1.19,0.53,2.49,0.79,3.91,0.79c1.82,0,3.49-0.45,5.01-1.36
			s2.74-2.31,3.64-4.21C287.15,172.2,287.6,169.86,287.6,167.09z"/>
		<path d="M306.91,175.89v5.46c0,1.32-0.31,2.32-0.93,2.98c-0.62,0.66-1.41,0.99-2.37,0.99c-0.94,0-1.71-0.33-2.32-1
			c-0.61-0.67-0.91-1.66-0.91-2.97v-18.18c0-2.93,1.06-4.4,3.18-4.4c1.08,0,1.87,0.34,2.34,1.03c0.48,0.69,0.74,1.7,0.79,3.04
			c0.78-1.34,1.58-2.35,2.4-3.04c0.82-0.69,1.92-1.03,3.29-1.03c1.37,0,2.7,0.34,4,1.03c1.29,0.69,1.94,1.6,1.94,2.73
			c0,0.8-0.27,1.46-0.83,1.97c-0.55,0.52-1.14,0.78-1.78,0.78c-0.24,0-0.82-0.15-1.73-0.44c-0.92-0.29-1.73-0.44-2.43-0.44
			c-0.96,0-1.74,0.25-2.34,0.75c-0.61,0.5-1.08,1.25-1.41,2.24c-0.33,0.99-0.57,2.17-0.69,3.53
			C306.98,172.27,306.91,173.93,306.91,175.89z"/>
		<path d="M325.19,155.72c-0.91,0-1.69-0.28-2.33-0.84c-0.65-0.56-0.97-1.35-0.97-2.37c0-0.92,0.33-1.69,0.99-2.29
			c0.66-0.6,1.43-0.9,2.31-0.9c0.84,0,1.59,0.27,2.25,0.81c0.65,0.54,0.98,1.33,0.98,2.37c0,1-0.32,1.79-0.96,2.36
			C326.83,155.44,326.07,155.72,325.19,155.72z M328.42,162.47v18.88c0,1.31-0.31,2.3-0.93,2.97c-0.62,0.67-1.41,1-2.37,1
			s-1.73-0.34-2.33-1.03c-0.6-0.69-0.9-1.67-0.9-2.94v-18.69c0-1.29,0.3-2.26,0.9-2.92c0.6-0.65,1.38-0.98,2.33-0.98
			s1.75,0.33,2.37,0.98C328.11,160.4,328.42,161.3,328.42,162.47z"/>
		<path d="M359.19,163.54v18.97c0,2.17-0.23,4.04-0.69,5.6c-0.46,1.56-1.2,2.85-2.22,3.88c-1.02,1.02-2.36,1.78-4.01,2.27
			c-1.65,0.49-3.71,0.74-6.16,0.74c-2.25,0-4.26-0.31-6.03-0.95c-1.77-0.63-3.13-1.44-4.09-2.44c-0.96-1-1.44-2.02-1.44-3.07
			c0-0.8,0.27-1.45,0.81-1.95c0.54-0.5,1.2-0.75,1.96-0.75c0.96,0,1.79,0.42,2.51,1.27c0.35,0.43,0.71,0.87,1.09,1.3
			c0.37,0.44,0.79,0.81,1.24,1.13c0.45,0.31,1,0.54,1.64,0.69c0.64,0.15,1.37,0.23,2.2,0.23c1.69,0,3-0.24,3.94-0.71
			c0.93-0.47,1.59-1.13,1.96-1.97c0.38-0.85,0.59-1.75,0.66-2.72c0.06-0.96,0.11-2.52,0.14-4.65c-1,1.4-2.17,2.47-3.48,3.21
			c-1.32,0.73-2.88,1.1-4.7,1.1c-2.19,0-4.1-0.56-5.73-1.67c-1.63-1.12-2.89-2.68-3.77-4.69c-0.88-2.01-1.32-4.33-1.32-6.96
			c0-1.96,0.27-3.73,0.8-5.31c0.53-1.58,1.3-2.91,2.28-4c0.99-1.08,2.13-1.9,3.42-2.45c1.29-0.55,2.71-0.83,4.26-0.83
			c1.85,0,3.45,0.35,4.81,1.06c1.36,0.71,2.62,1.82,3.78,3.34v-0.89c0-1.13,0.28-2.01,0.84-2.63s1.28-0.93,2.15-0.93
			c1.26,0,2.1,0.41,2.51,1.23C358.98,160.81,359.19,162,359.19,163.54z M340.27,171.82c0,2.65,0.58,4.65,1.73,6.01
			c1.16,1.36,2.65,2.03,4.49,2.03c1.08,0,2.11-0.29,3.07-0.87c0.96-0.58,1.75-1.46,2.36-2.63c0.61-1.17,0.91-2.6,0.91-4.27
			c0-2.66-0.59-4.74-1.76-6.22c-1.17-1.48-2.72-2.23-4.63-2.23c-1.87,0-3.36,0.71-4.49,2.13
			C340.83,167.19,340.27,169.21,340.27,171.82z"/>
		<path d="M369.1,155.72c-0.91,0-1.69-0.28-2.33-0.84c-0.65-0.56-0.97-1.35-0.97-2.37c0-0.92,0.33-1.69,0.99-2.29
			c0.66-0.6,1.43-0.9,2.31-0.9c0.84,0,1.59,0.27,2.25,0.81c0.65,0.54,0.98,1.33,0.98,2.37c0,1-0.32,1.79-0.96,2.36
			C370.73,155.44,369.97,155.72,369.1,155.72z M372.33,162.47v18.88c0,1.31-0.31,2.3-0.93,2.97c-0.62,0.67-1.41,1-2.37,1
			s-1.73-0.34-2.33-1.03c-0.6-0.69-0.9-1.67-0.9-2.94v-18.69c0-1.29,0.3-2.26,0.9-2.92c0.6-0.65,1.38-0.98,2.33-0.98
			s1.75,0.33,2.37,0.98C372.01,160.4,372.33,161.3,372.33,162.47z"/>
		<path d="M385.01,162.37v0.79c1.15-1.52,2.41-2.63,3.77-3.34c1.36-0.71,2.93-1.06,4.7-1.06c1.72,0,3.26,0.38,4.62,1.12
			c1.36,0.75,2.37,1.81,3.04,3.18c0.43,0.8,0.71,1.66,0.84,2.58c0.13,0.93,0.19,2.11,0.19,3.54v12.15c0,1.31-0.3,2.3-0.9,2.97
			c-0.6,0.67-1.38,1-2.33,1c-0.97,0-1.76-0.34-2.37-1.03s-0.91-1.67-0.91-2.94v-10.89c0-2.15-0.3-3.8-0.9-4.94
			c-0.6-1.14-1.79-1.71-3.58-1.71c-1.17,0-2.23,0.35-3.18,1.04c-0.96,0.69-1.66,1.65-2.11,2.86c-0.32,0.97-0.48,2.79-0.48,5.46v8.18
			c0,1.32-0.31,2.32-0.92,2.98c-0.61,0.66-1.41,0.99-2.38,0.99c-0.94,0-1.71-0.34-2.32-1.03c-0.61-0.69-0.91-1.67-0.91-2.94v-18.88
			c0-1.24,0.27-2.17,0.81-2.79c0.54-0.61,1.28-0.92,2.22-0.92c0.57,0,1.09,0.14,1.55,0.41c0.46,0.27,0.83,0.68,1.11,1.22
			C384.87,160.93,385.01,161.59,385.01,162.37z"/>
		<path d="M425.18,181.63c-1.58,1.23-3.11,2.15-4.58,2.76c-1.48,0.61-3.13,0.92-4.96,0.92c-1.67,0-3.15-0.33-4.41-0.99
			c-1.27-0.66-2.25-1.56-2.93-2.69c-0.69-1.13-1.03-2.36-1.03-3.68c0-1.79,0.57-3.31,1.7-4.57c1.13-1.26,2.69-2.11,4.67-2.54
			c0.42-0.1,1.44-0.31,3.09-0.65c1.64-0.33,3.05-0.64,4.22-0.92c1.17-0.28,2.44-0.62,3.82-1.02c-0.08-1.72-0.43-2.99-1.04-3.79
			c-0.61-0.81-1.89-1.21-3.82-1.21c-1.66,0-2.91,0.23-3.74,0.69c-0.84,0.46-1.56,1.16-2.15,2.08c-0.6,0.93-1.02,1.54-1.27,1.83
			c-0.25,0.29-0.78,0.44-1.59,0.44c-0.73,0-1.37-0.24-1.9-0.71c-0.53-0.47-0.8-1.07-0.8-1.81c0-1.15,0.41-2.26,1.22-3.35
			c0.81-1.08,2.08-1.98,3.8-2.68c1.72-0.7,3.87-1.05,6.44-1.05c2.87,0,5.13,0.34,6.77,1.02c1.64,0.68,2.8,1.75,3.48,3.22
			c0.68,1.47,1.02,3.41,1.02,5.84c0,1.53,0,2.83-0.01,3.9c-0.01,1.07-0.02,2.26-0.04,3.56c0,1.23,0.2,2.51,0.61,3.84
			c0.41,1.33,0.61,2.19,0.61,2.57c0,0.67-0.32,1.28-0.95,1.83c-0.63,0.55-1.34,0.83-2.14,0.83c-0.67,0-1.33-0.31-1.99-0.94
			C426.61,183.74,425.91,182.83,425.18,181.63z M424.75,172.18c-0.96,0.35-2.35,0.72-4.17,1.11c-1.83,0.39-3.09,0.68-3.79,0.86
			c-0.7,0.18-1.37,0.54-2.01,1.08c-0.64,0.53-0.96,1.28-0.96,2.24c0,0.99,0.38,1.83,1.13,2.52c0.75,0.69,1.73,1.04,2.94,1.04
			c1.29,0,2.48-0.28,3.58-0.85c1.09-0.57,1.89-1.3,2.4-2.19c0.59-0.99,0.88-2.62,0.88-4.88V172.18z"/>
		<path d="M437.79,181.35v-28.33c0-1.31,0.29-2.3,0.87-2.97c0.58-0.67,1.37-1,2.36-1s1.79,0.33,2.39,0.99
			c0.61,0.66,0.91,1.66,0.91,2.98v28.33c0,1.32-0.31,2.32-0.92,2.98c-0.61,0.66-1.41,0.99-2.38,0.99c-0.96,0-1.73-0.34-2.33-1.03
			C438.09,183.6,437.79,182.62,437.79,181.35z"/>
		<path d="M470.73,153.35v25.53h14.4c1.15,0,2.03,0.28,2.64,0.84c0.61,0.56,0.92,1.26,0.92,2.11c0,0.86-0.3,1.56-0.91,2.09
			c-0.61,0.53-1.49,0.8-2.66,0.8h-17.15c-1.55,0-2.66-0.34-3.34-1.03c-0.68-0.69-1.02-1.79-1.02-3.33v-27.01
			c0-1.44,0.32-2.51,0.97-3.23c0.65-0.72,1.5-1.08,2.55-1.08c1.07,0,1.93,0.35,2.6,1.06C470.4,150.82,470.73,151.9,470.73,153.35z"
			/>
		<path d="M496.21,155.72c-0.91,0-1.69-0.28-2.33-0.84c-0.65-0.56-0.97-1.35-0.97-2.37c0-0.92,0.33-1.69,0.99-2.29
			c0.66-0.6,1.43-0.9,2.31-0.9c0.84,0,1.59,0.27,2.25,0.81c0.65,0.54,0.98,1.33,0.98,2.37c0,1-0.32,1.79-0.96,2.36
			C497.85,155.44,497.09,155.72,496.21,155.72z M499.44,162.47v18.88c0,1.31-0.31,2.3-0.93,2.97c-0.62,0.67-1.41,1-2.37,1
			s-1.73-0.34-2.33-1.03c-0.6-0.69-0.9-1.67-0.9-2.94v-18.69c0-1.29,0.3-2.26,0.9-2.92c0.6-0.65,1.38-0.98,2.33-0.98
			s1.75,0.33,2.37,0.98C499.13,160.4,499.44,161.3,499.44,162.47z"/>
		<path d="M530.21,163.54v18.97c0,2.17-0.23,4.04-0.69,5.6c-0.46,1.56-1.2,2.85-2.22,3.88c-1.02,1.02-2.36,1.78-4.01,2.27
			c-1.65,0.49-3.71,0.74-6.16,0.74c-2.25,0-4.26-0.31-6.03-0.95c-1.77-0.63-3.13-1.44-4.09-2.44c-0.96-1-1.44-2.02-1.44-3.07
			c0-0.8,0.27-1.45,0.81-1.95c0.54-0.5,1.2-0.75,1.96-0.75c0.96,0,1.79,0.42,2.51,1.27c0.35,0.43,0.71,0.87,1.09,1.3
			c0.37,0.44,0.79,0.81,1.24,1.13c0.45,0.31,1,0.54,1.64,0.69c0.64,0.15,1.37,0.23,2.2,0.23c1.69,0,3-0.24,3.94-0.71
			c0.93-0.47,1.59-1.13,1.96-1.97c0.38-0.85,0.59-1.75,0.66-2.72c0.06-0.96,0.11-2.52,0.14-4.65c-1,1.4-2.17,2.47-3.48,3.21
			c-1.32,0.73-2.88,1.1-4.7,1.1c-2.19,0-4.1-0.56-5.73-1.67c-1.63-1.12-2.89-2.68-3.77-4.69c-0.88-2.01-1.32-4.33-1.32-6.96
			c0-1.96,0.27-3.73,0.8-5.31c0.53-1.58,1.3-2.91,2.28-4c0.99-1.08,2.13-1.9,3.42-2.45c1.29-0.55,2.71-0.83,4.26-0.83
			c1.85,0,3.45,0.35,4.81,1.06c1.36,0.71,2.62,1.82,3.78,3.34v-0.89c0-1.13,0.28-2.01,0.84-2.63s1.28-0.93,2.15-0.93
			c1.26,0,2.1,0.41,2.51,1.23C530,160.81,530.21,162,530.21,163.54z M511.29,171.82c0,2.65,0.58,4.65,1.73,6.01
			c1.16,1.36,2.65,2.03,4.49,2.03c1.08,0,2.11-0.29,3.07-0.87c0.96-0.58,1.75-1.46,2.36-2.63c0.61-1.17,0.91-2.6,0.91-4.27
			c0-2.66-0.59-4.74-1.76-6.22c-1.17-1.48-2.72-2.23-4.63-2.23c-1.87,0-3.36,0.71-4.49,2.13
			C511.85,167.19,511.29,169.21,511.29,171.82z"/>
		<path d="M543.2,153.02v9.69c0.83-0.96,1.64-1.71,2.43-2.27c0.79-0.56,1.66-0.98,2.62-1.26c0.96-0.28,1.99-0.42,3.09-0.42
			c1.66,0,3.13,0.35,4.41,1.05c1.28,0.7,2.29,1.72,3.03,3.06c0.46,0.78,0.77,1.65,0.93,2.62c0.16,0.97,0.24,2.08,0.24,3.34v12.51
			c0,1.31-0.3,2.3-0.9,2.97c-0.6,0.67-1.39,1-2.38,1c-2.15,0-3.23-1.32-3.23-3.97v-11.03c0-2.09-0.31-3.7-0.93-4.82
			c-0.62-1.12-1.8-1.69-3.54-1.69c-1.16,0-2.21,0.33-3.15,0.99c-0.93,0.66-1.63,1.57-2.09,2.72c-0.35,0.97-0.53,2.7-0.53,5.19v8.64
			c0,1.29-0.29,2.28-0.87,2.95c-0.58,0.68-1.39,1.02-2.43,1.02c-2.15,0-3.23-1.32-3.23-3.97v-28.33c0-1.32,0.28-2.32,0.85-2.98
			c0.57-0.66,1.36-0.99,2.38-0.99c1.04,0,1.85,0.33,2.43,1C542.91,150.72,543.2,151.71,543.2,153.02z"/>
		<path d="M566.77,159.33h0.72v-3.92c0-1.05,0.03-1.88,0.08-2.48c0.06-0.6,0.21-1.11,0.47-1.54c0.26-0.45,0.62-0.81,1.1-1.09
			c0.48-0.28,1.01-0.42,1.6-0.42c0.83,0,1.58,0.31,2.25,0.93c0.45,0.42,0.73,0.92,0.85,1.52c0.12,0.6,0.18,1.45,0.18,2.55v4.45h2.39
			c0.92,0,1.63,0.22,2.12,0.66c0.49,0.44,0.73,1,0.73,1.69c0,0.88-0.35,1.49-1.04,1.84c-0.69,0.35-1.69,0.53-2.98,0.53h-1.22v12.01
			c0,1.02,0.04,1.81,0.11,2.36c0.07,0.55,0.26,1,0.57,1.34c0.31,0.34,0.82,0.51,1.52,0.51c0.38,0,0.9-0.07,1.55-0.2
			c0.65-0.14,1.16-0.2,1.53-0.2c0.53,0,1,0.21,1.42,0.63c0.42,0.42,0.63,0.94,0.63,1.57c0,1.05-0.57,1.86-1.72,2.42
			s-2.8,0.84-4.95,0.84c-2.04,0-3.59-0.34-4.64-1.03s-1.74-1.63-2.07-2.85c-0.33-1.21-0.49-2.83-0.49-4.86v-12.54h-0.86
			c-0.94,0-1.66-0.22-2.15-0.67c-0.49-0.45-0.74-1.01-0.74-1.7c0-0.69,0.26-1.25,0.78-1.69
			C565.03,159.55,565.78,159.33,566.77,159.33z"/>
		<path d="M589.69,162.37v0.79c1.15-1.52,2.41-2.63,3.77-3.34c1.36-0.71,2.93-1.06,4.7-1.06c1.72,0,3.26,0.38,4.62,1.12
			c1.36,0.75,2.37,1.81,3.04,3.18c0.43,0.8,0.71,1.66,0.84,2.58c0.13,0.93,0.19,2.11,0.19,3.54v12.15c0,1.31-0.3,2.3-0.9,2.97
			c-0.6,0.67-1.38,1-2.33,1c-0.97,0-1.76-0.34-2.37-1.03s-0.91-1.67-0.91-2.94v-10.89c0-2.15-0.3-3.8-0.9-4.94
			c-0.6-1.14-1.79-1.71-3.58-1.71c-1.17,0-2.23,0.35-3.18,1.04c-0.96,0.69-1.66,1.65-2.11,2.86c-0.32,0.97-0.48,2.79-0.48,5.46v8.18
			c0,1.32-0.31,2.32-0.92,2.98c-0.61,0.66-1.41,0.99-2.38,0.99c-0.94,0-1.71-0.34-2.32-1.03c-0.61-0.69-0.91-1.67-0.91-2.94v-18.88
			c0-1.24,0.27-2.17,0.81-2.79c0.54-0.61,1.28-0.92,2.22-0.92c0.57,0,1.09,0.14,1.55,0.41c0.46,0.27,0.83,0.68,1.11,1.22
			C589.55,160.93,589.69,161.59,589.69,162.37z"/>
		<path d="M616.66,155.72c-0.91,0-1.69-0.28-2.33-0.84c-0.65-0.56-0.97-1.35-0.97-2.37c0-0.92,0.33-1.69,0.99-2.29
			c0.66-0.6,1.43-0.9,2.31-0.9c0.84,0,1.59,0.27,2.25,0.81c0.65,0.54,0.98,1.33,0.98,2.37c0,1-0.32,1.79-0.96,2.36
			C618.29,155.44,617.53,155.72,616.66,155.72z M619.88,162.47v18.88c0,1.31-0.31,2.3-0.93,2.97c-0.62,0.67-1.41,1-2.37,1
			s-1.73-0.34-2.33-1.03c-0.6-0.69-0.9-1.67-0.9-2.94v-18.69c0-1.29,0.3-2.26,0.9-2.92c0.6-0.65,1.38-0.98,2.33-0.98
			s1.75,0.33,2.37,0.98C619.57,160.4,619.88,161.3,619.88,162.47z"/>
		<path d="M632.57,162.37v0.79c1.15-1.52,2.41-2.63,3.77-3.34c1.36-0.71,2.93-1.06,4.7-1.06c1.72,0,3.26,0.38,4.62,1.12
			c1.36,0.75,2.37,1.81,3.04,3.18c0.43,0.8,0.71,1.66,0.84,2.58c0.13,0.93,0.19,2.11,0.19,3.54v12.15c0,1.31-0.3,2.3-0.9,2.97
			c-0.6,0.67-1.38,1-2.33,1c-0.97,0-1.76-0.34-2.37-1.03s-0.91-1.67-0.91-2.94v-10.89c0-2.15-0.3-3.8-0.9-4.94
			c-0.6-1.14-1.79-1.71-3.58-1.71c-1.17,0-2.23,0.35-3.18,1.04c-0.96,0.69-1.66,1.65-2.11,2.86c-0.32,0.97-0.48,2.79-0.48,5.46v8.18
			c0,1.32-0.31,2.32-0.92,2.98c-0.61,0.66-1.41,0.99-2.38,0.99c-0.94,0-1.71-0.34-2.32-1.03c-0.61-0.69-0.91-1.67-0.91-2.94v-18.88
			c0-1.24,0.27-2.17,0.81-2.79c0.54-0.61,1.28-0.92,2.22-0.92c0.57,0,1.09,0.14,1.55,0.41c0.46,0.27,0.83,0.68,1.11,1.22
			C632.43,160.93,632.57,161.59,632.57,162.37z"/>
		<path d="M680.25,163.54v18.97c0,2.17-0.23,4.04-0.69,5.6c-0.46,1.56-1.2,2.85-2.22,3.88c-1.02,1.02-2.36,1.78-4.01,2.27
			c-1.65,0.49-3.71,0.74-6.16,0.74c-2.25,0-4.26-0.31-6.03-0.95c-1.77-0.63-3.13-1.44-4.09-2.44c-0.96-1-1.44-2.02-1.44-3.07
			c0-0.8,0.27-1.45,0.81-1.95c0.54-0.5,1.2-0.75,1.96-0.75c0.96,0,1.79,0.42,2.51,1.27c0.35,0.43,0.71,0.87,1.09,1.3
			c0.37,0.44,0.79,0.81,1.24,1.13c0.45,0.31,1,0.54,1.64,0.69c0.64,0.15,1.37,0.23,2.2,0.23c1.69,0,3-0.24,3.94-0.71
			c0.93-0.47,1.59-1.13,1.96-1.97c0.38-0.85,0.59-1.75,0.66-2.72c0.06-0.96,0.11-2.52,0.14-4.65c-1,1.4-2.17,2.47-3.48,3.21
			c-1.32,0.73-2.88,1.1-4.7,1.1c-2.19,0-4.1-0.56-5.73-1.67c-1.63-1.12-2.89-2.68-3.77-4.69c-0.88-2.01-1.32-4.33-1.32-6.96
			c0-1.96,0.27-3.73,0.8-5.31c0.53-1.58,1.3-2.91,2.28-4c0.99-1.08,2.13-1.9,3.42-2.45c1.29-0.55,2.71-0.83,4.26-0.83
			c1.85,0,3.45,0.35,4.81,1.06c1.36,0.71,2.62,1.82,3.78,3.34v-0.89c0-1.13,0.28-2.01,0.84-2.63s1.28-0.93,2.15-0.93
			c1.26,0,2.1,0.41,2.51,1.23C680.04,160.81,680.25,162,680.25,163.54z M661.32,171.82c0,2.65,0.58,4.65,1.73,6.01
			c1.16,1.36,2.65,2.03,4.49,2.03c1.08,0,2.11-0.29,3.07-0.87c0.96-0.58,1.75-1.46,2.36-2.63c0.61-1.17,0.91-2.6,0.91-4.27
			c0-2.66-0.59-4.74-1.76-6.22c-1.17-1.48-2.72-2.23-4.63-2.23c-1.87,0-3.36,0.71-4.49,2.13
			C661.89,167.19,661.32,169.21,661.32,171.82z"/>
		<path d="M695.44,174.86h-7.56c-1.15,0-2.02-0.27-2.62-0.8c-0.6-0.53-0.9-1.22-0.9-2.07c0-0.86,0.29-1.56,0.87-2.09
			c0.58-0.53,1.46-0.8,2.64-0.8h7.56c1.18,0,2.06,0.27,2.64,0.8c0.58,0.53,0.87,1.23,0.87,2.09c0,0.85-0.29,1.54-0.86,2.07
			C697.52,174.59,696.64,174.86,695.44,174.86z"/>
		<path d="M724.58,155.12h-14v8.97h11.7c1.08,0,1.89,0.24,2.43,0.73c0.53,0.49,0.8,1.14,0.8,1.95s-0.27,1.46-0.81,1.94
			c-0.54,0.48-1.35,0.72-2.42,0.72h-11.7v11.56c0,1.47-0.33,2.56-0.99,3.27c-0.66,0.71-1.51,1.06-2.55,1.06
			c-1.05,0-1.91-0.36-2.57-1.08c-0.66-0.72-0.99-1.8-0.99-3.25V154c0-1.02,0.15-1.85,0.45-2.5c0.3-0.65,0.78-1.12,1.42-1.41
			c0.65-0.29,1.47-0.44,2.48-0.44h16.75c1.13,0,1.97,0.25,2.52,0.75c0.55,0.5,0.83,1.16,0.83,1.97c0,0.83-0.28,1.5-0.83,2
			C726.56,154.87,725.72,155.12,724.58,155.12z"/>
		<path d="M748.06,181.63c-1.58,1.23-3.11,2.15-4.58,2.76c-1.48,0.61-3.13,0.92-4.96,0.92c-1.67,0-3.15-0.33-4.41-0.99
			c-1.27-0.66-2.25-1.56-2.93-2.69c-0.69-1.13-1.03-2.36-1.03-3.68c0-1.79,0.57-3.31,1.7-4.57c1.13-1.26,2.69-2.11,4.67-2.54
			c0.42-0.1,1.44-0.31,3.09-0.65c1.64-0.33,3.05-0.64,4.22-0.92c1.17-0.28,2.44-0.62,3.82-1.02c-0.08-1.72-0.43-2.99-1.04-3.79
			c-0.61-0.81-1.89-1.21-3.82-1.21c-1.66,0-2.91,0.23-3.74,0.69c-0.84,0.46-1.56,1.16-2.15,2.08c-0.6,0.93-1.02,1.54-1.27,1.83
			c-0.25,0.29-0.78,0.44-1.59,0.44c-0.73,0-1.37-0.24-1.9-0.71c-0.53-0.47-0.8-1.07-0.8-1.81c0-1.15,0.41-2.26,1.22-3.35
			c0.81-1.08,2.08-1.98,3.8-2.68c1.72-0.7,3.87-1.05,6.44-1.05c2.87,0,5.13,0.34,6.77,1.02c1.64,0.68,2.8,1.75,3.48,3.22
			c0.68,1.47,1.02,3.41,1.02,5.84c0,1.53,0,2.83-0.01,3.9c-0.01,1.07-0.02,2.26-0.04,3.56c0,1.23,0.2,2.51,0.61,3.84
			c0.41,1.33,0.61,2.19,0.61,2.57c0,0.67-0.32,1.28-0.95,1.83c-0.63,0.55-1.34,0.83-2.14,0.83c-0.67,0-1.33-0.31-1.99-0.94
			C749.48,183.74,748.79,182.83,748.06,181.63z M747.63,172.18c-0.96,0.35-2.35,0.72-4.17,1.11c-1.83,0.39-3.09,0.68-3.79,0.86
			c-0.7,0.18-1.37,0.54-2.01,1.08c-0.64,0.53-0.96,1.28-0.96,2.24c0,0.99,0.38,1.83,1.13,2.52c0.75,0.69,1.73,1.04,2.94,1.04
			c1.29,0,2.48-0.28,3.58-0.85c1.09-0.57,1.89-1.3,2.4-2.19c0.59-0.99,0.88-2.62,0.88-4.88V172.18z"/>
		<path d="M781.7,176.78c0,1.8-0.44,3.35-1.32,4.63c-0.88,1.28-2.17,2.26-3.89,2.92c-1.71,0.66-3.8,0.99-6.26,0.99
			c-2.34,0-4.35-0.36-6.03-1.08c-1.67-0.72-2.91-1.62-3.71-2.69c-0.8-1.08-1.2-2.16-1.2-3.24c0-0.72,0.25-1.33,0.77-1.84
			c0.51-0.51,1.16-0.77,1.94-0.77c0.69,0,1.21,0.17,1.58,0.5c0.37,0.33,0.72,0.81,1.05,1.41c0.67,1.16,1.47,2.03,2.4,2.61
			c0.93,0.57,2.21,0.86,3.82,0.86c1.31,0,2.38-0.29,3.22-0.87c0.84-0.58,1.26-1.25,1.26-2c0-1.15-0.43-1.99-1.3-2.51
			c-0.87-0.53-2.3-1.03-4.29-1.51c-2.25-0.56-4.08-1.14-5.49-1.76c-1.41-0.61-2.54-1.42-3.39-2.43c-0.84-1-1.27-2.24-1.27-3.71
			c0-1.31,0.39-2.54,1.17-3.71c0.78-1.16,1.93-2.09,3.46-2.79c1.52-0.69,3.36-1.04,5.51-1.04c1.69,0,3.21,0.18,4.56,0.53
			c1.35,0.35,2.47,0.82,3.37,1.41c0.9,0.59,1.59,1.24,2.06,1.96c0.47,0.72,0.71,1.42,0.71,2.11c0,0.75-0.25,1.36-0.75,1.84
			c-0.5,0.48-1.22,0.72-2.14,0.72c-0.67,0-1.24-0.19-1.71-0.57s-1.01-0.96-1.61-1.72c-0.5-0.64-1.08-1.15-1.75-1.53
			s-1.58-0.57-2.73-0.57c-1.18,0-2.16,0.25-2.94,0.75c-0.78,0.5-1.17,1.13-1.17,1.88c0,0.69,0.29,1.25,0.86,1.69
			c0.57,0.44,1.35,0.8,2.32,1.09c0.97,0.29,2.31,0.64,4.02,1.05c2.03,0.49,3.68,1.08,4.96,1.77c1.28,0.69,2.26,1.5,2.92,2.43
			C781.36,174.52,781.7,175.58,781.7,176.78z"/>
		<path d="M787.58,159.33h0.72v-3.92c0-1.05,0.03-1.88,0.08-2.48c0.06-0.6,0.21-1.11,0.47-1.54c0.26-0.45,0.62-0.81,1.1-1.09
			c0.48-0.28,1.01-0.42,1.6-0.42c0.83,0,1.58,0.31,2.25,0.93c0.45,0.42,0.73,0.92,0.85,1.52c0.12,0.6,0.18,1.45,0.18,2.55v4.45h2.39
			c0.92,0,1.63,0.22,2.12,0.66c0.49,0.44,0.73,1,0.73,1.69c0,0.88-0.35,1.49-1.04,1.84c-0.69,0.35-1.69,0.53-2.98,0.53h-1.22v12.01
			c0,1.02,0.04,1.81,0.11,2.36c0.07,0.55,0.26,1,0.57,1.34c0.31,0.34,0.82,0.51,1.52,0.51c0.38,0,0.9-0.07,1.55-0.2
			c0.65-0.14,1.16-0.2,1.53-0.2c0.53,0,1,0.21,1.42,0.63c0.42,0.42,0.63,0.94,0.63,1.57c0,1.05-0.57,1.86-1.72,2.42
			s-2.8,0.84-4.95,0.84c-2.04,0-3.59-0.34-4.64-1.03s-1.74-1.63-2.07-2.85c-0.33-1.21-0.49-2.83-0.49-4.86v-12.54h-0.86
			c-0.94,0-1.66-0.22-2.15-0.67c-0.49-0.45-0.74-1.01-0.74-1.7c0-0.69,0.26-1.25,0.78-1.69
			C785.84,159.55,786.59,159.33,787.58,159.33z"/>
		<path d="M809,185.37c-1.05,0-1.96-0.32-2.73-0.97c-0.77-0.65-1.15-1.55-1.15-2.72c0-1,0.38-1.85,1.13-2.54
			c0.75-0.69,1.63-1.03,2.66-1.03c0.77,0,1.46,0.21,2.08,0.62c0.62,0.42,1.11,1.02,1.46,1.83c0.35,0.81,0.53,1.8,0.53,2.98
			c0,1.58-0.33,3.06-1,4.44c-0.67,1.38-1.49,2.47-2.45,3.28c-0.97,0.81-1.84,1.21-2.62,1.21c-0.49,0-0.9-0.16-1.21-0.49
			c-0.31-0.33-0.47-0.71-0.47-1.14c0-0.65,0.33-1.18,0.98-1.58C808.06,188.23,809,186.93,809,185.37z"/>
		<path d="M841.87,153.3l13.66,20.67v-20.86c0-1.36,0.29-2.37,0.87-3.05c0.58-0.68,1.37-1.02,2.36-1.02c1.02,0,1.83,0.34,2.42,1.02
			c0.59,0.68,0.89,1.69,0.89,3.05v27.59c0,3.08-1.28,4.62-3.83,4.62c-0.64,0-1.21-0.09-1.72-0.27c-0.51-0.18-0.99-0.47-1.44-0.87
			c-0.45-0.4-0.86-0.87-1.24-1.4c-0.38-0.53-0.77-1.08-1.15-1.64l-13.33-20.43v20.55c0,1.34-0.31,2.35-0.93,3.04
			c-0.62,0.69-1.42,1.03-2.39,1.03c-1.01,0-1.81-0.35-2.42-1.04c-0.61-0.69-0.91-1.7-0.91-3.03v-27.06c0-1.15,0.13-2.05,0.38-2.7
			c0.3-0.72,0.81-1.3,1.51-1.76c0.7-0.46,1.46-0.68,2.27-0.68c0.64,0,1.18,0.1,1.64,0.31c0.46,0.21,0.85,0.49,1.2,0.84
			c0.34,0.35,0.69,0.81,1.05,1.36C841.12,152.12,841.49,152.7,841.87,153.3z"/>
		<path d="M893.84,172.04c0,1.95-0.3,3.74-0.91,5.38c-0.61,1.64-1.48,3.05-2.63,4.23c-1.15,1.18-2.52,2.09-4.12,2.72
			c-1.6,0.63-3.39,0.94-5.38,0.94c-1.98,0-3.76-0.32-5.33-0.96c-1.58-0.64-2.95-1.55-4.1-2.74c-1.16-1.19-2.03-2.59-2.63-4.21
			c-0.6-1.62-0.9-3.41-0.9-5.37c0-1.98,0.3-3.79,0.91-5.43c0.61-1.64,1.48-3.05,2.61-4.21c1.13-1.16,2.5-2.06,4.12-2.69
			c1.61-0.63,3.39-0.94,5.33-0.94c1.98,0,3.77,0.32,5.38,0.96c1.61,0.64,2.99,1.55,4.14,2.73c1.15,1.18,2.02,2.58,2.62,4.21
			C893.54,168.28,893.84,170.08,893.84,172.04z M887.28,172.04c0-2.66-0.59-4.74-1.76-6.22c-1.17-1.48-2.75-2.23-4.73-2.23
			c-1.28,0-2.4,0.33-3.37,0.99c-0.97,0.66-1.72,1.64-2.25,2.93c-0.53,1.29-0.79,2.8-0.79,4.52c0,1.71,0.26,3.2,0.78,4.47
			c0.52,1.28,1.26,2.25,2.23,2.93c0.96,0.68,2.1,1.02,3.41,1.02c1.98,0,3.55-0.75,4.73-2.24
			C886.69,176.73,887.28,174.67,887.28,172.04z"/>
		<path d="M932.64,155.12h-14v8.97h11.7c1.08,0,1.89,0.24,2.43,0.73c0.53,0.49,0.8,1.14,0.8,1.95s-0.27,1.46-0.81,1.94
			c-0.54,0.48-1.35,0.72-2.42,0.72h-11.7v11.56c0,1.47-0.33,2.56-0.99,3.27c-0.66,0.71-1.51,1.06-2.55,1.06
			c-1.05,0-1.91-0.36-2.57-1.08c-0.66-0.72-0.99-1.8-0.99-3.25V154c0-1.02,0.15-1.85,0.45-2.5c0.3-0.65,0.78-1.12,1.42-1.41
			c0.65-0.29,1.47-0.44,2.48-0.44h16.75c1.13,0,1.97,0.25,2.52,0.75c0.55,0.5,0.83,1.16,0.83,1.97c0,0.83-0.28,1.5-0.83,2
			C934.62,154.87,933.78,155.12,932.64,155.12z"/>
		<path d="M957.19,173.64h-12.78c0.02,1.48,0.32,2.79,0.9,3.92c0.58,1.13,1.36,1.99,2.32,2.56c0.96,0.57,2.03,0.86,3.19,0.86
			c0.78,0,1.5-0.09,2.14-0.28c0.65-0.18,1.27-0.47,1.88-0.86c0.61-0.39,1.17-0.81,1.68-1.26c0.51-0.45,1.17-1.05,1.99-1.82
			c0.33-0.29,0.81-0.43,1.44-0.43c0.67,0,1.21,0.18,1.63,0.55c0.42,0.37,0.62,0.89,0.62,1.56c0,0.59-0.23,1.28-0.69,2.07
			c-0.46,0.79-1.16,1.55-2.09,2.27c-0.93,0.73-2.11,1.33-3.52,1.81c-1.41,0.48-3.03,0.72-4.87,0.72c-4.19,0-7.46-1.2-9.79-3.59
			s-3.49-5.64-3.49-9.74c0-1.93,0.29-3.72,0.86-5.37c0.57-1.65,1.41-3.07,2.51-4.25c1.1-1.18,2.46-2.09,4.07-2.72
			c1.61-0.63,3.4-0.94,5.36-0.94c2.55,0,4.74,0.54,6.57,1.61c1.83,1.08,3.19,2.47,4.1,4.18c0.91,1.71,1.36,3.45,1.36,5.22
			c0,1.64-0.47,2.71-1.41,3.19C960.22,173.4,958.9,173.64,957.19,173.64z M944.41,169.93h11.84c-0.16-2.23-0.76-3.9-1.81-5.01
			c-1.04-1.11-2.42-1.66-4.13-1.66c-1.63,0-2.96,0.56-4.01,1.69C945.27,166.07,944.64,167.73,944.41,169.93z"/>
		<path d="M986.31,173.64h-12.78c0.02,1.48,0.32,2.79,0.9,3.92c0.58,1.13,1.36,1.99,2.32,2.56c0.96,0.57,2.03,0.86,3.19,0.86
			c0.78,0,1.5-0.09,2.14-0.28c0.65-0.18,1.27-0.47,1.88-0.86c0.61-0.39,1.17-0.81,1.68-1.26c0.51-0.45,1.17-1.05,1.99-1.82
			c0.33-0.29,0.81-0.43,1.44-0.43c0.67,0,1.21,0.18,1.63,0.55c0.42,0.37,0.62,0.89,0.62,1.56c0,0.59-0.23,1.28-0.69,2.07
			c-0.46,0.79-1.16,1.55-2.09,2.27c-0.93,0.73-2.11,1.33-3.52,1.81c-1.41,0.48-3.03,0.72-4.87,0.72c-4.19,0-7.46-1.2-9.79-3.59
			s-3.49-5.64-3.49-9.74c0-1.93,0.29-3.72,0.86-5.37c0.57-1.65,1.41-3.07,2.51-4.25c1.1-1.18,2.46-2.09,4.07-2.72
			c1.61-0.63,3.4-0.94,5.36-0.94c2.55,0,4.74,0.54,6.57,1.61c1.83,1.08,3.19,2.47,4.1,4.18c0.91,1.71,1.36,3.45,1.36,5.22
			c0,1.64-0.47,2.71-1.41,3.19C989.34,173.4,988.01,173.64,986.31,173.64z M973.53,169.93h11.84c-0.16-2.23-0.76-3.9-1.81-5.01
			c-1.04-1.11-2.42-1.66-4.13-1.66c-1.63,0-2.96,0.56-4.01,1.69C974.39,166.07,973.75,167.73,973.53,169.93z"/>
		<path d="M1039.78,173.64c0,1.12-0.27,2.32-0.83,3.62c-0.55,1.3-1.42,2.58-2.6,3.83c-1.18,1.25-2.69,2.27-4.52,3.05
			c-1.83,0.78-3.97,1.17-6.41,1.17c-1.85,0-3.53-0.18-5.05-0.53s-2.89-0.9-4.13-1.64c-1.24-0.74-2.37-1.72-3.41-2.93
			c-0.93-1.1-1.71-2.33-2.37-3.7c-0.65-1.36-1.14-2.82-1.47-4.37c-0.33-1.55-0.49-3.19-0.49-4.93c0-2.82,0.41-5.35,1.23-7.58
			c0.82-2.23,2-4.14,3.53-5.73c1.53-1.59,3.33-2.79,5.38-3.62c2.06-0.83,4.25-1.24,6.58-1.24c2.84,0,5.37,0.57,7.58,1.7
			c2.22,1.13,3.92,2.53,5.1,4.2c1.18,1.67,1.77,3.24,1.77,4.73c0,0.81-0.29,1.53-0.86,2.15s-1.27,0.93-2.08,0.93
			c-0.91,0-1.59-0.22-2.05-0.65c-0.45-0.43-0.96-1.17-1.52-2.23c-0.92-1.74-2.01-3.04-3.27-3.9s-2.79-1.29-4.63-1.29
			c-2.92,0-5.24,1.11-6.97,3.33c-1.73,2.22-2.6,5.37-2.6,9.45c0,2.73,0.38,5,1.15,6.81c0.77,1.81,1.85,3.16,3.25,4.06
			c1.4,0.89,3.05,1.34,4.93,1.34c2.04,0,3.77-0.51,5.18-1.52c1.41-1.01,2.48-2.5,3.19-4.46c0.3-0.92,0.68-1.68,1.12-2.26
			c0.45-0.58,1.16-0.87,2.15-0.87c0.85,0,1.57,0.3,2.18,0.89C1039.48,172.03,1039.78,172.76,1039.78,173.64z"/>
		<path d="M1052.2,175.89v5.46c0,1.32-0.31,2.32-0.93,2.98c-0.62,0.66-1.41,0.99-2.37,0.99c-0.94,0-1.71-0.33-2.32-1
			c-0.61-0.67-0.91-1.66-0.91-2.97v-18.18c0-2.93,1.06-4.4,3.18-4.4c1.08,0,1.87,0.34,2.34,1.03c0.48,0.69,0.74,1.7,0.79,3.04
			c0.78-1.34,1.58-2.35,2.4-3.04c0.82-0.69,1.92-1.03,3.29-1.03c1.37,0,2.7,0.34,4,1.03c1.29,0.69,1.94,1.6,1.94,2.73
			c0,0.8-0.27,1.46-0.83,1.97c-0.55,0.52-1.14,0.78-1.78,0.78c-0.24,0-0.82-0.15-1.73-0.44c-0.92-0.29-1.73-0.44-2.43-0.44
			c-0.96,0-1.74,0.25-2.34,0.75c-0.61,0.5-1.08,1.25-1.41,2.24c-0.33,0.99-0.57,2.17-0.69,3.53
			C1052.26,172.27,1052.2,173.93,1052.2,175.89z"/>
		<path d="M1073.2,186.13l0.6-1.46l-8.04-20.24c-0.49-1.16-0.74-2.01-0.74-2.54c0-0.56,0.14-1.08,0.43-1.56s0.68-0.86,1.18-1.15
			c0.5-0.29,1.03-0.43,1.57-0.43c0.94,0,1.65,0.3,2.13,0.9c0.48,0.6,0.9,1.46,1.27,2.57l5.53,16.08l5.24-14.95
			c0.42-1.21,0.79-2.16,1.13-2.85c0.33-0.69,0.69-1.15,1.06-1.39c0.37-0.24,0.91-0.36,1.59-0.36c0.49,0,0.97,0.13,1.42,0.4
			c0.45,0.26,0.8,0.62,1.05,1.06c0.25,0.45,0.37,0.92,0.37,1.41c-0.06,0.3-0.17,0.73-0.31,1.29c-0.14,0.56-0.32,1.12-0.53,1.7
			l-8.52,22.3c-0.73,1.96-1.45,3.5-2.15,4.62c-0.7,1.12-1.63,1.97-2.79,2.57c-1.16,0.6-2.72,0.9-4.68,0.9
			c-1.91,0-3.35-0.21-4.31-0.62c-0.96-0.42-1.44-1.17-1.44-2.27c0-0.75,0.23-1.33,0.68-1.73c0.46-0.41,1.13-0.61,2.02-0.61
			c0.35,0,0.69,0.05,1.03,0.14c0.42,0.1,0.77,0.14,1.08,0.14c0.75,0,1.34-0.11,1.77-0.33c0.43-0.22,0.82-0.61,1.16-1.16
			C1072.36,188.01,1072.76,187.2,1073.2,186.13z"/>
		<path d="M1099.76,162.42v0.79c1.23-1.52,2.5-2.63,3.83-3.34c1.32-0.71,2.82-1.06,4.5-1.06c2.01,0,3.86,0.52,5.55,1.56
			c1.69,1.04,3.03,2.55,4.01,4.55c0.98,1.99,1.47,4.35,1.47,7.08c0,2.01-0.28,3.86-0.85,5.54c-0.57,1.68-1.34,3.09-2.33,4.23
			c-0.99,1.14-2.16,2.02-3.5,2.63c-1.35,0.61-2.79,0.92-4.34,0.92c-1.87,0-3.43-0.38-4.7-1.12c-1.27-0.75-2.48-1.85-3.63-3.3v9.81
			c0,2.87-1.04,4.31-3.13,4.31c-1.23,0-2.04-0.37-2.44-1.11c-0.4-0.74-0.6-1.82-0.6-3.24v-28.18c0-1.24,0.27-2.17,0.81-2.79
			c0.54-0.61,1.28-0.92,2.23-0.92c0.92,0,1.68,0.31,2.26,0.94C1099.47,160.33,1099.76,161.24,1099.76,162.42z M1112.56,171.92
			c0-1.72-0.26-3.2-0.79-4.44c-0.53-1.24-1.26-2.19-2.19-2.85c-0.93-0.66-1.97-0.99-3.1-0.99c-1.8,0-3.32,0.71-4.56,2.13
			c-1.24,1.42-1.85,3.51-1.85,6.27c0,2.6,0.61,4.62,1.84,6.07c1.23,1.44,2.75,2.17,4.57,2.17c1.08,0,2.09-0.31,3.01-0.95
			c0.92-0.63,1.67-1.57,2.22-2.83C1112.28,175.23,1112.56,173.71,1112.56,171.92z"/>
		<path d="M1124.72,159.33h0.72v-3.92c0-1.05,0.03-1.88,0.08-2.48c0.06-0.6,0.21-1.11,0.47-1.54c0.26-0.45,0.62-0.81,1.1-1.09
			c0.48-0.28,1.01-0.42,1.6-0.42c0.83,0,1.58,0.31,2.25,0.93c0.45,0.42,0.73,0.92,0.85,1.52c0.12,0.6,0.18,1.45,0.18,2.55v4.45h2.39
			c0.92,0,1.63,0.22,2.12,0.66c0.49,0.44,0.73,1,0.73,1.69c0,0.88-0.35,1.49-1.04,1.84c-0.69,0.35-1.69,0.53-2.98,0.53h-1.22v12.01
			c0,1.02,0.04,1.81,0.11,2.36c0.07,0.55,0.26,1,0.57,1.34c0.31,0.34,0.82,0.51,1.52,0.51c0.38,0,0.9-0.07,1.55-0.2
			c0.65-0.14,1.16-0.2,1.53-0.2c0.53,0,1,0.21,1.42,0.63c0.42,0.42,0.63,0.94,0.63,1.57c0,1.05-0.57,1.86-1.72,2.42
			s-2.8,0.84-4.95,0.84c-2.04,0-3.59-0.34-4.64-1.03s-1.74-1.63-2.07-2.85c-0.33-1.21-0.49-2.83-0.49-4.86v-12.54h-0.86
			c-0.94,0-1.66-0.22-2.15-0.67c-0.49-0.45-0.74-1.01-0.74-1.7c0-0.69,0.26-1.25,0.78-1.69
			C1122.97,159.55,1123.73,159.33,1124.72,159.33z"/>
		<path d="M1166.16,172.04c0,1.95-0.3,3.74-0.91,5.38c-0.61,1.64-1.48,3.05-2.63,4.23c-1.15,1.18-2.52,2.09-4.12,2.72
			c-1.6,0.63-3.39,0.94-5.38,0.94c-1.98,0-3.76-0.32-5.33-0.96c-1.58-0.64-2.95-1.55-4.1-2.74c-1.16-1.19-2.03-2.59-2.63-4.21
			c-0.6-1.62-0.9-3.41-0.9-5.37c0-1.98,0.3-3.79,0.91-5.43c0.61-1.64,1.48-3.05,2.61-4.21c1.13-1.16,2.5-2.06,4.12-2.69
			c1.61-0.63,3.39-0.94,5.33-0.94c1.98,0,3.77,0.32,5.38,0.96c1.61,0.64,2.99,1.55,4.14,2.73c1.15,1.18,2.02,2.58,2.62,4.21
			C1165.86,168.28,1166.16,170.08,1166.16,172.04z M1159.6,172.04c0-2.66-0.59-4.74-1.76-6.22c-1.17-1.48-2.75-2.23-4.73-2.23
			c-1.28,0-2.4,0.33-3.37,0.99c-0.97,0.66-1.72,1.64-2.25,2.93c-0.53,1.29-0.79,2.8-0.79,4.52c0,1.71,0.26,3.2,0.78,4.47
			c0.52,1.28,1.26,2.25,2.23,2.93c0.96,0.68,2.1,1.02,3.41,1.02c1.98,0,3.55-0.75,4.73-2.24
			C1159.01,176.73,1159.6,174.67,1159.6,172.04z"/>
		<path d="M1210.66,174.19c0,2.12-0.55,4.03-1.64,5.72c-1.09,1.69-2.69,3.01-4.8,3.97s-4.6,1.44-7.49,1.44
			c-3.46,0-6.32-0.65-8.57-1.96c-1.59-0.94-2.89-2.2-3.89-3.77c-1-1.57-1.5-3.1-1.5-4.58c0-0.86,0.3-1.6,0.9-2.21
			c0.6-0.61,1.36-0.92,2.29-0.92c0.75,0,1.38,0.24,1.9,0.72c0.52,0.48,0.96,1.19,1.33,2.13c0.45,1.12,0.93,2.05,1.45,2.8
			c0.52,0.75,1.25,1.37,2.19,1.85c0.94,0.49,2.18,0.73,3.71,0.73c2.11,0,3.82-0.49,5.13-1.47c1.32-0.98,1.97-2.21,1.97-3.67
			c0-1.16-0.35-2.11-1.06-2.83c-0.71-0.73-1.63-1.28-2.75-1.66c-1.13-0.38-2.63-0.79-4.51-1.22c-2.52-0.59-4.63-1.28-6.33-2.07
			c-1.7-0.79-3.05-1.87-4.04-3.23c-1-1.36-1.5-3.06-1.5-5.08c0-1.93,0.53-3.64,1.58-5.14c1.05-1.5,2.58-2.65,4.57-3.46
			c1.99-0.81,4.34-1.21,7.03-1.21c2.15,0,4.02,0.27,5.59,0.8c1.57,0.53,2.88,1.24,3.91,2.13c1.04,0.88,1.79,1.81,2.27,2.79
			c0.48,0.97,0.72,1.92,0.72,2.85c0,0.85-0.3,1.61-0.9,2.28c-0.6,0.68-1.34,1.02-2.24,1.02c-0.81,0-1.43-0.2-1.85-0.61
			c-0.42-0.41-0.88-1.07-1.38-2c-0.64-1.32-1.4-2.36-2.3-3.1c-0.89-0.74-2.33-1.11-4.31-1.11c-1.83,0-3.31,0.4-4.44,1.21
			c-1.12,0.81-1.69,1.77-1.69,2.91c0,0.7,0.19,1.31,0.57,1.82c0.38,0.51,0.91,0.95,1.58,1.32c0.67,0.37,1.35,0.65,2.03,0.86
			c0.69,0.21,1.82,0.51,3.4,0.91c1.98,0.46,3.77,0.97,5.37,1.53c1.6,0.56,2.97,1.24,4.09,2.03c1.13,0.8,2,1.81,2.63,3.03
			C1210.34,170.93,1210.66,172.42,1210.66,174.19z"/>
		<path d="M1219.54,155.72c-0.91,0-1.69-0.28-2.33-0.84c-0.65-0.56-0.97-1.35-0.97-2.37c0-0.92,0.33-1.69,0.99-2.29
			c0.66-0.6,1.43-0.9,2.31-0.9c0.84,0,1.59,0.27,2.25,0.81c0.65,0.54,0.98,1.33,0.98,2.37c0,1-0.32,1.79-0.96,2.36
			C1221.17,155.44,1220.41,155.72,1219.54,155.72z M1222.76,162.47v18.88c0,1.31-0.31,2.3-0.93,2.97c-0.62,0.67-1.41,1-2.37,1
			s-1.73-0.34-2.33-1.03c-0.6-0.69-0.9-1.67-0.9-2.94v-18.69c0-1.29,0.3-2.26,0.9-2.92c0.6-0.65,1.38-0.98,2.33-0.98
			s1.75,0.33,2.37,0.98C1222.45,160.4,1222.76,161.3,1222.76,162.47z"/>
		<path d="M1235.44,162.37v0.79c1.15-1.52,2.41-2.63,3.77-3.34c1.36-0.71,2.93-1.06,4.7-1.06c1.72,0,3.26,0.38,4.62,1.12
			c1.36,0.75,2.37,1.81,3.04,3.18c0.43,0.8,0.71,1.66,0.84,2.58c0.13,0.93,0.19,2.11,0.19,3.54v12.15c0,1.31-0.3,2.3-0.9,2.97
			c-0.6,0.67-1.38,1-2.33,1c-0.97,0-1.76-0.34-2.37-1.03s-0.91-1.67-0.91-2.94v-10.89c0-2.15-0.3-3.8-0.9-4.94
			c-0.6-1.14-1.79-1.71-3.58-1.71c-1.17,0-2.23,0.35-3.18,1.04c-0.96,0.69-1.66,1.65-2.11,2.86c-0.32,0.97-0.48,2.79-0.48,5.46v8.18
			c0,1.32-0.31,2.32-0.92,2.98c-0.61,0.66-1.41,0.99-2.38,0.99c-0.94,0-1.71-0.34-2.32-1.03c-0.61-0.69-0.91-1.67-0.91-2.94v-18.88
			c0-1.24,0.27-2.17,0.81-2.79c0.54-0.61,1.28-0.92,2.22-0.92c0.57,0,1.09,0.14,1.55,0.41c0.46,0.27,0.83,0.68,1.11,1.22
			C1235.3,160.93,1235.44,161.59,1235.44,162.37z"/>
		<path d="M1282.53,177.23c0,0.81-0.24,1.68-0.73,2.61c-0.49,0.93-1.23,1.81-2.23,2.64c-1,0.84-2.25,1.51-3.77,2.02
			c-1.52,0.51-3.22,0.77-5.12,0.77c-4.04,0-7.19-1.18-9.45-3.53c-2.26-2.35-3.4-5.51-3.4-9.46c0-2.68,0.52-5.05,1.55-7.11
			c1.04-2.06,2.54-3.65,4.5-4.77c1.96-1.13,4.31-1.69,7.04-1.69c1.69,0,3.24,0.25,4.65,0.74c1.41,0.49,2.61,1.13,3.59,1.91
			c0.98,0.78,1.73,1.62,2.25,2.5c0.52,0.89,0.78,1.71,0.78,2.48c0,0.78-0.29,1.44-0.87,1.99c-0.58,0.54-1.29,0.81-2.12,0.81
			c-0.54,0-0.99-0.14-1.35-0.42c-0.36-0.28-0.76-0.73-1.21-1.35c-0.8-1.21-1.63-2.12-2.5-2.73c-0.87-0.61-1.97-0.91-3.31-0.91
			c-1.93,0-3.49,0.75-4.67,2.26c-1.18,1.51-1.77,3.57-1.77,6.18c0,1.23,0.15,2.36,0.45,3.39c0.3,1.03,0.74,1.91,1.32,2.63
			c0.57,0.73,1.27,1.28,2.08,1.65c0.81,0.38,1.71,0.56,2.68,0.56c1.31,0,2.43-0.3,3.36-0.91c0.93-0.61,1.76-1.53,2.48-2.78
			c0.4-0.73,0.83-1.31,1.29-1.72c0.46-0.41,1.03-0.62,1.7-0.62c0.8,0,1.46,0.3,1.99,0.91
			C1282.27,175.9,1282.53,176.54,1282.53,177.23z"/>
		<path d="M1306.46,173.64h-12.78c0.02,1.48,0.32,2.79,0.9,3.92c0.58,1.13,1.36,1.99,2.32,2.56c0.96,0.57,2.03,0.86,3.19,0.86
			c0.78,0,1.5-0.09,2.14-0.28c0.65-0.18,1.27-0.47,1.88-0.86c0.61-0.39,1.17-0.81,1.68-1.26c0.51-0.45,1.17-1.05,1.99-1.82
			c0.33-0.29,0.81-0.43,1.44-0.43c0.67,0,1.21,0.18,1.63,0.55c0.42,0.37,0.62,0.89,0.62,1.56c0,0.59-0.23,1.28-0.69,2.07
			c-0.46,0.79-1.16,1.55-2.09,2.27c-0.93,0.73-2.11,1.33-3.52,1.81c-1.41,0.48-3.03,0.72-4.87,0.72c-4.19,0-7.46-1.2-9.79-3.59
			s-3.49-5.64-3.49-9.74c0-1.93,0.29-3.72,0.86-5.37c0.57-1.65,1.41-3.07,2.51-4.25c1.1-1.18,2.46-2.09,4.07-2.72
			c1.61-0.63,3.4-0.94,5.36-0.94c2.55,0,4.74,0.54,6.57,1.61c1.83,1.08,3.19,2.47,4.1,4.18c0.91,1.71,1.36,3.45,1.36,5.22
			c0,1.64-0.47,2.71-1.41,3.19C1309.49,173.4,1308.16,173.64,1306.46,173.64z M1293.68,169.93h11.84c-0.16-2.23-0.76-3.9-1.81-5.01
			c-1.04-1.11-2.42-1.66-4.13-1.66c-1.63,0-2.96,0.56-4.01,1.69C1294.54,166.07,1293.9,167.73,1293.68,169.93z"/>
		<path d="M1337.15,179.07h12.49c1.24,0,2.19,0.26,2.85,0.77c0.65,0.51,0.98,1.2,0.98,2.08c0,0.78-0.26,1.44-0.78,1.99
			c-0.52,0.54-1.3,0.81-2.36,0.81h-17.61c-1.2,0-2.13-0.33-2.8-0.99c-0.67-0.66-1.01-1.44-1.01-2.33c0-0.57,0.22-1.34,0.65-2.28
			c0.43-0.95,0.9-1.69,1.41-2.24c2.12-2.2,4.04-4.09,5.74-5.66c1.71-1.57,2.93-2.6,3.66-3.1c1.31-0.92,2.4-1.85,3.27-2.79
			c0.87-0.93,1.53-1.89,1.99-2.87c0.45-0.98,0.68-1.94,0.68-2.88c0-1.02-0.24-1.93-0.73-2.74c-0.49-0.81-1.15-1.43-1.99-1.88
			c-0.84-0.45-1.75-0.67-2.74-0.67c-2.09,0-3.73,0.92-4.93,2.75c-0.16,0.24-0.43,0.89-0.8,1.96c-0.38,1.07-0.8,1.89-1.27,2.46
			c-0.47,0.57-1.16,0.86-2.07,0.86c-0.8,0-1.46-0.26-1.99-0.79s-0.79-1.24-0.79-2.15c0-1.1,0.25-2.25,0.74-3.45s1.23-2.28,2.21-3.25
			c0.98-0.97,2.23-1.76,3.73-2.36c1.51-0.6,3.27-0.9,5.3-0.9c2.44,0,4.52,0.38,6.25,1.15c1.12,0.51,2.1,1.21,2.94,2.11
			c0.85,0.89,1.5,1.93,1.97,3.1c0.47,1.17,0.71,2.39,0.71,3.65c0,1.98-0.49,3.78-1.47,5.4c-0.98,1.62-1.98,2.89-3,3.8
			c-1.02,0.92-2.73,2.36-5.13,4.32s-4.05,3.49-4.94,4.57C1337.94,177.95,1337.55,178.47,1337.15,179.07z"/>
		<path d="M1382.13,167.52c0,2.62-0.16,4.87-0.48,6.75c-0.32,1.88-0.91,3.59-1.77,5.12c-1.08,1.88-2.49,3.33-4.21,4.35
			s-3.64,1.53-5.74,1.53c-2.42,0-4.6-0.69-6.52-2.06c-1.92-1.37-3.37-3.27-4.34-5.69c-0.49-1.32-0.86-2.79-1.09-4.39
			c-0.23-1.6-0.35-3.34-0.35-5.2c0-2.41,0.13-4.58,0.38-6.51c0.25-1.93,0.65-3.59,1.2-4.98c0.94-2.3,2.31-4.05,4.1-5.25
			c1.79-1.2,3.94-1.81,6.42-1.81c1.64,0,3.13,0.27,4.47,0.8c1.34,0.53,2.52,1.32,3.53,2.34c1.01,1.03,1.87,2.3,2.57,3.82
			C1381.53,158.98,1382.13,162.7,1382.13,167.52z M1375.58,167.04c0-2.92-0.18-5.31-0.53-7.17c-0.35-1.86-0.94-3.26-1.77-4.21
			c-0.83-0.95-1.98-1.42-3.45-1.42c-2.11,0-3.57,1.06-4.39,3.18c-0.82,2.12-1.23,5.39-1.23,9.81c0,3,0.17,5.46,0.53,7.37
			c0.35,1.91,0.94,3.36,1.77,4.34c0.83,0.98,1.95,1.47,3.37,1.47c1.47,0,2.62-0.51,3.45-1.53c0.83-1.02,1.41-2.48,1.75-4.38
			C1375.41,172.6,1375.58,170.12,1375.58,167.04z"/>
		<path d="M1398.28,181.44v-21.77c-4.05,3.11-6.78,4.67-8.18,4.67c-0.67,0-1.26-0.27-1.78-0.8c-0.52-0.53-0.78-1.15-0.78-1.85
			c0-0.81,0.26-1.41,0.77-1.79c0.51-0.38,1.41-0.88,2.7-1.48c1.93-0.91,3.47-1.87,4.63-2.87c1.16-1,2.18-2.13,3.07-3.37
			s1.48-2.01,1.75-2.3c0.27-0.29,0.78-0.43,1.53-0.43c0.85,0,1.52,0.33,2.03,0.98c0.51,0.65,0.77,1.56,0.77,2.7v27.4
			c0,3.21-1.09,4.81-3.28,4.81c-0.97,0-1.75-0.33-2.34-0.98C1398.58,183.68,1398.28,182.72,1398.28,181.44z"/>
		<path d="M1430.72,181.68v-4.45h-12.01c-1.52,0-2.65-0.34-3.41-1.03c-0.76-0.69-1.14-1.62-1.14-2.8c0-0.3,0.06-0.61,0.17-0.92
			c0.11-0.31,0.28-0.64,0.5-0.98c0.22-0.34,0.46-0.67,0.69-0.99c0.24-0.32,0.53-0.71,0.89-1.17l12.68-16.96
			c0.83-1.12,1.51-1.93,2.05-2.43c0.53-0.5,1.18-0.75,1.93-0.75c2.42,0,3.64,1.39,3.64,4.16v18.52h1.03c1.23,0,2.21,0.17,2.96,0.5
			c0.74,0.33,1.11,1.07,1.11,2.2c0,0.93-0.3,1.6-0.91,2.02c-0.61,0.42-1.52,0.63-2.73,0.63h-1.46v4.45c0,1.23-0.27,2.14-0.81,2.74
			c-0.54,0.6-1.27,0.9-2.18,0.9c-0.89,0-1.62-0.31-2.17-0.92C1431,183.78,1430.72,182.88,1430.72,181.68z M1420.44,171.87h10.29
			v-13.9L1420.44,171.87z"/>
	</g>
	<g>
		<g>
			<path class="st1" d="M663.23,423.46c0-75.54,61.24-136.77,136.77-136.77v-45.85c-100.86,0-182.62,81.76-182.62,182.62
				S699.14,606.08,800,606.08v-45.85C724.46,560.24,663.23,499,663.23,423.46z"/>
			<path class="st2" d="M800,240.84v45.85c75.54,0,136.77,61.24,136.77,136.77S875.54,560.24,800,560.24v45.85
				c100.86,0,182.62-81.76,182.62-182.62S900.86,240.84,800,240.84z"/>
			<path class="st3" d="M936.77,423.46c0-75.54-61.24-136.77-136.77-136.77v273.55C875.54,560.24,936.77,499,936.77,423.46z"/>
			<path class="st4" d="M663.23,423.46c0,75.54,61.24,136.77,136.77,136.77V286.69C724.46,286.69,663.23,347.92,663.23,423.46z"/>
		</g>
		<g>
			<g>
				<path class="st5" d="M746.29,470.18c-1.37,0-2.67-0.7-3.4-1.91l-46.16-75.92v73.85c0,2.2-1.78,3.98-3.98,3.98
					c-2.2,0-3.98-1.78-3.98-3.98v-88.07c0-1.79,1.19-3.35,2.91-3.84c1.72-0.48,3.55,0.24,4.48,1.77l46.16,75.92v-73.85
					c0-2.2,1.78-3.98,3.98-3.98s3.98,1.78,3.98,3.98v88.07c0,1.79-1.19,3.35-2.91,3.84C747.01,470.13,746.65,470.18,746.29,470.18z"
					/>
			</g>
			<g>
				<path class="st5" d="M788.98,432.31c-14.84,0-24.43-10.67-24.43-27.17v-26.86c0-2.28,1.78-4.13,3.98-4.13s3.98,1.85,3.98,4.13
					v26.86c0,12.02,6,18.91,16.47,18.91c10.62,0,16.47-6.72,16.47-18.91v-26.86c0-2.28,1.78-4.13,3.98-4.13
					c2.2,0,3.98,1.85,3.98,4.13v26.86C813.42,421.9,804.05,432.31,788.98,432.31z"/>
			</g>
			<g>
				<path class="st5" d="M788.98,470.18c-2.2,0-3.98-1.72-3.98-3.84v-38.46c0-2.12,1.78-3.84,3.98-3.84s3.98,1.72,3.98,3.84v38.46
					C792.97,468.46,791.18,470.18,788.98,470.18z"/>
			</g>
			<g>
				<path class="st5" d="M874.55,471.88c-27.41,0-49.71-22.3-49.71-49.71c0-27.41,22.3-49.71,49.71-49.71
					c13.74,0,27,5.77,36.37,15.82c1.5,1.61,1.41,4.13-0.2,5.63c-1.61,1.5-4.13,1.41-5.63-0.2c-7.87-8.45-19-13.29-30.54-13.29
					c-23.02,0-41.75,18.73-41.75,41.75c0,23.02,18.73,41.75,41.75,41.75c12.13,0,23.65-5.27,31.59-14.46
					c1.44-1.66,3.95-1.85,5.62-0.41c1.66,1.44,1.85,3.95,0.41,5.62C902.71,465.6,889,471.88,874.55,471.88z"/>
			</g>
		</g>
	</g>
</g>
</svg>
